# xmcd
#
# Track frame offsets:
#	150
#	20500
#	33765
#	57932
#	76789
#	99990
#	119236
#	139182
#	158114
#	170967
#	190255
#	213365
#	233314
#	254813
#	274724
#
# Disc length: 4191 seconds
#
# Revision: 0
# Processed by: cddbd v1.5.1PL0 Copyright (c) Steve Scherf et al.
# Submitted via: EasyCDDAExtractor 7.5.2.1
#
DISCID=ce105d0f
DTITLE=Willie Nelson - Milk Cow Blues
DYEAR=2000
DGENRE=Country
TTITLE0=Milk Cow Blues (featuring Francine Reed)
TTITLE1=Outskirts Of Town (featuring Keb Mo)
TTITLE2=Black Night (featuring Dr. John)
TTITLE3=Funny How Times Slips Away (featuring Francine Reed)
TTITLE4=Rainy Day Blues (featuring Jonny Lang)
TTITLE5=Crazy (featuring Susan Tedeschi)
TTITLE6=Thrill Is Gone, The (featuring B.B. King)
TTITLE7=Wake Me When It's Over
TTITLE8=Kansas City (featuring Susan Tedeschi)
TTITLE9=Fool's Paradise (featuring Dr. John)
TTITLE10=Ain't Nobody's Business (featuring Jonny Lang)
TTITLE11=Night Life (featuring B.B. King)
TTITLE12=Sittin' On Top Of The World
TTITLE13=Lonely Street
TTITLE14=Texas Flood (featuring Kenny Wayne Shepard)
EXTD=
EXTT0=
EXTT1=
EXTT2=
EXTT3=
EXTT4=
EXTT5=
EXTT6=
EXTT7=
EXTT8=
EXTT9=
EXTT10=
EXTT11=
EXTT12=
EXTT13=
EXTT14=
PLAYORDER=
